<svg width="242" height="73" viewBox="0 0 242 73" fill="none" xmlns="http://www.w3.org/2000/svg">
<path d="M0.704 72.136V13.48H7.616L7.808 17.512C8.384 16.296 9.28 15.208 10.496 14.248C11.776 13.288 13.856 12.808 16.736 12.808C19.552 12.808 21.76 13.288 23.36 14.248C24.96 15.144 26.112 16.488 26.816 18.28C27.52 20.008 27.872 22.12 27.872 24.616V47.944C27.872 50.824 27.552 53.288 26.912 55.336C26.272 57.384 25.152 58.952 23.552 60.04C21.952 61.128 19.68 61.672 16.736 61.672C14.368 61.672 12.48 61.288 11.072 60.52C9.664 59.688 8.608 58.728 7.904 57.64V72.136H0.704ZM14.24 57.352C15.84 57.352 17.056 57.128 17.888 56.68C18.72 56.232 19.328 55.624 19.712 54.856C20.16 54.088 20.416 53.224 20.48 52.264C20.544 51.304 20.576 50.28 20.576 49.192V25.576C20.576 24.488 20.544 23.464 20.48 22.504C20.416 21.544 20.16 20.68 19.712 19.912C19.328 19.08 18.72 18.44 17.888 17.992C17.056 17.544 15.84 17.32 14.24 17.32C12.704 17.32 11.488 17.608 10.592 18.184C9.76 18.76 9.152 19.496 8.768 20.392C8.384 21.224 8.16 22.184 8.096 23.272C8.032 24.296 8 25.256 8 26.152V49.672C8 51.144 8.128 52.456 8.384 53.608C8.64 54.76 9.216 55.688 10.112 56.392C11.008 57.032 12.384 57.352 14.24 57.352ZM44.6855 61.672C43.1495 61.672 41.6455 61.448 40.1735 61C38.7015 60.616 37.4535 59.688 36.4295 58.216C35.4055 56.744 34.8935 54.44 34.8935 51.304V46.216C34.8935 43.08 35.8215 40.552 37.6775 38.632C39.5975 36.712 42.3175 34.984 45.8375 33.448C47.9495 32.488 49.6775 31.624 51.0215 30.856C52.3655 30.024 53.3575 29.128 53.9975 28.168C54.6375 27.144 54.9575 25.8 54.9575 24.136V21.928C54.9575 20.52 54.6695 19.464 54.0935 18.76C53.5815 17.992 52.8455 17.448 51.8855 17.128C50.9895 16.808 49.9975 16.648 48.9095 16.648C46.3495 16.648 44.6535 17.384 43.8215 18.856C43.0535 20.264 42.6695 22.44 42.6695 25.384V29.416H36.0455V24.712C36.0455 22.344 36.3655 20.264 37.0055 18.472C37.6455 16.616 38.8935 15.176 40.7495 14.152C42.6055 13.064 45.3255 12.52 48.9095 12.52C52.6855 12.52 55.5335 12.936 57.4535 13.768C59.3735 14.536 60.6535 15.688 61.2935 17.224C61.9975 18.76 62.3495 20.68 62.3495 22.984V61H55.0535V55.24C54.3495 57.352 53.0055 58.952 51.0215 60.04C49.1015 61.128 46.9895 61.672 44.6855 61.672ZM47.5655 56.776C50.1895 56.776 52.0455 55.88 53.1335 54.088C54.2855 52.232 54.8615 49.736 54.8615 46.6V32.2C54.2855 33.16 53.3255 34.024 51.9815 34.792C50.7015 35.496 49.3895 36.232 48.0455 37C46.1255 38.152 44.6215 39.336 43.5335 40.552C42.5095 41.768 41.9975 43.464 41.9975 45.64V49.768C41.9975 51.816 42.2855 53.352 42.8615 54.376C43.4375 55.4 44.1415 56.072 44.9735 56.392C45.8695 56.648 46.7335 56.776 47.5655 56.776ZM82.1548 61.192C80.7468 61.192 79.4028 61.032 78.1228 60.712C76.9068 60.392 75.8508 59.88 74.9548 59.176C74.0588 58.408 73.3548 57.416 72.8428 56.2C72.3308 54.92 72.0748 53.32 72.0748 51.4V17.992H67.7548V14.248L72.5547 13.48L73.8028 4.648H79.2748V13.48H89.2588V17.992H79.2748V50.152C79.2748 51.816 79.5948 53.224 80.2348 54.376C80.8748 55.528 82.2188 56.104 84.2668 56.104C85.1628 56.104 86.1228 56.072 87.1468 56.008C88.1708 55.944 88.8748 55.88 89.2588 55.816V60.424C88.8748 60.488 87.9788 60.648 86.5708 60.904C85.2268 61.096 83.7548 61.192 82.1548 61.192ZM95.0165 61V13.48H102.217V61H95.0165ZM98.5685 7.72C97.5445 7.72 96.6485 7.368 95.8805 6.664C95.1125 5.896 94.7285 5 94.7285 3.976C94.7285 2.888 95.1125 1.992 95.8805 1.288C96.6485 0.583998 97.5445 0.231998 98.5685 0.231998C99.6565 0.231998 100.585 0.583998 101.353 1.288C102.185 1.992 102.601 2.888 102.601 3.976C102.601 5 102.185 5.896 101.353 6.664C100.585 7.368 99.6565 7.72 98.5685 7.72ZM131.194 61L120.154 33.448L131.674 13.48H138.97L127.258 33.448L139.066 61H131.194ZM111.61 61V0.136H118.81V61H111.61ZM153.529 61.672C151.993 61.672 150.489 61.448 149.017 61C147.545 60.616 146.297 59.688 145.273 58.216C144.249 56.744 143.737 54.44 143.737 51.304V46.216C143.737 43.08 144.665 40.552 146.521 38.632C148.441 36.712 151.161 34.984 154.681 33.448C156.793 32.488 158.521 31.624 159.865 30.856C161.209 30.024 162.201 29.128 162.841 28.168C163.481 27.144 163.801 25.8 163.801 24.136V21.928C163.801 20.52 163.513 19.464 162.937 18.76C162.425 17.992 161.689 17.448 160.729 17.128C159.833 16.808 158.841 16.648 157.753 16.648C155.193 16.648 153.497 17.384 152.665 18.856C151.897 20.264 151.513 22.44 151.513 25.384V29.416H144.889V24.712C144.889 22.344 145.209 20.264 145.849 18.472C146.489 16.616 147.737 15.176 149.593 14.152C151.449 13.064 154.169 12.52 157.753 12.52C161.529 12.52 164.377 12.936 166.297 13.768C168.217 14.536 169.497 15.688 170.137 17.224C170.841 18.76 171.193 20.68 171.193 22.984V61H163.897V55.24C163.193 57.352 161.849 58.952 159.865 60.04C157.945 61.128 155.833 61.672 153.529 61.672ZM156.409 56.776C159.033 56.776 160.889 55.88 161.977 54.088C163.129 52.232 163.705 49.736 163.705 46.6V32.2C163.129 33.16 162.169 34.024 160.825 34.792C159.545 35.496 158.233 36.232 156.889 37C154.969 38.152 153.465 39.336 152.377 40.552C151.353 41.768 150.841 43.464 150.841 45.64V49.768C150.841 51.816 151.129 53.352 151.705 54.376C152.281 55.4 152.985 56.072 153.817 56.392C154.713 56.648 155.577 56.776 156.409 56.776Z" fill="black"/>
<path d="M190.615 61.768C188.311 61.768 186.391 61.512 184.855 61C183.319 60.424 182.071 59.592 181.111 58.504C180.215 57.352 179.575 55.912 179.191 54.184C178.871 52.392 178.711 50.312 178.711 47.944V24.424C178.711 22.568 178.903 20.936 179.287 19.528C179.671 18.056 180.311 16.84 181.207 15.88C182.103 14.856 183.223 14.088 184.567 13.576C185.911 13 187.575 12.712 189.559 12.712C192.183 12.712 194.167 13.096 195.511 13.864C196.919 14.632 197.943 15.56 198.583 16.648V0.519995H205.879V61H200.887L200.119 56.488C199.799 57.256 199.255 58.056 198.487 58.888C197.783 59.656 196.791 60.328 195.511 60.904C194.295 61.48 192.663 61.768 190.615 61.768ZM192.055 57.352C193.655 57.352 194.903 57.064 195.799 56.488C196.695 55.912 197.335 55.144 197.719 54.184C198.103 53.224 198.327 52.168 198.391 51.016C198.519 49.864 198.583 48.712 198.583 47.56V21.16C198.455 20.648 198.167 20.104 197.719 19.528C197.271 18.888 196.599 18.344 195.703 17.896C194.871 17.448 193.719 17.224 192.247 17.224C190.647 17.224 189.431 17.448 188.599 17.896C187.767 18.344 187.159 18.984 186.775 19.816C186.391 20.584 186.167 21.448 186.103 22.408C186.039 23.368 186.007 24.392 186.007 25.48V49.192C186.007 50.6 186.071 51.944 186.199 53.224C186.391 54.504 186.903 55.528 187.734 56.296C188.631 57 190.071 57.352 192.055 57.352ZM223.748 61.672C222.212 61.672 220.708 61.448 219.236 61C217.764 60.616 216.516 59.688 215.492 58.216C214.468 56.744 213.956 54.44 213.956 51.304V46.216C213.956 43.08 214.884 40.552 216.74 38.632C218.66 36.712 221.38 34.984 224.9 33.448C227.012 32.488 228.74 31.624 230.084 30.856C231.428 30.024 232.42 29.128 233.06 28.168C233.7 27.144 234.02 25.8 234.02 24.136V21.928C234.02 20.52 233.732 19.464 233.156 18.76C232.644 17.992 231.908 17.448 230.948 17.128C230.052 16.808 229.06 16.648 227.972 16.648C225.412 16.648 223.716 17.384 222.884 18.856C222.116 20.264 221.732 22.44 221.732 25.384V29.416H215.108V24.712C215.108 22.344 215.428 20.264 216.068 18.472C216.708 16.616 217.956 15.176 219.812 14.152C221.668 13.064 224.388 12.52 227.972 12.52C231.748 12.52 234.596 12.936 236.516 13.768C238.436 14.536 239.716 15.688 240.356 17.224C241.06 18.76 241.412 20.68 241.412 22.984V61H234.116V55.24C233.412 57.352 232.068 58.952 230.084 60.04C228.164 61.128 226.052 61.672 223.748 61.672ZM226.628 56.776C229.252 56.776 231.108 55.88 232.196 54.088C233.348 52.232 233.924 49.736 233.924 46.6V32.2C233.348 33.16 232.388 34.024 231.044 34.792C229.764 35.496 228.452 36.232 227.108 37C225.188 38.152 223.684 39.336 222.596 40.552C221.572 41.768 221.06 43.464 221.06 45.64V49.768C221.06 51.816 221.348 53.352 221.924 54.376C222.5 55.4 223.204 56.072 224.036 56.392C224.932 56.648 225.796 56.776 226.628 56.776Z" fill="#FF8C00"/>
</svg>
